<svg width="300" height="300" viewBox="0 0 300 300" fill="none" xmlns="http://www.w3.org/2000/svg">
<rect width="300" height="300" fill="black"/>
<path d="M181.855 32H124.426C115.494 32 108.254 39.2402 108.254 48.1715C108.254 52.7614 106.304 57.135 102.889 60.2022L71.9621 87.9824C66.8946 92.5343 64 99.0252 64 105.837V225.536C64 236.695 71.6909 246.381 82.5591 248.911L151.398 264.934C157.115 266.265 163.122 265.455 168.282 262.656L222.442 233.28C230.181 229.083 235 220.987 235 212.184V104.443C235 98.4546 232.761 92.6824 228.723 88.2602L203.11 60.2088C200.275 57.1043 198.704 53.0522 198.704 48.8483C198.704 39.5432 191.161 32 181.855 32Z" fill="#60A5FA"/>
<path d="M102.142 179.106C97.7127 135.625 106.213 114.898 149.717 87.3535C192.204 119.894 201.312 140.188 198.142 179.106H102.142Z" fill="white" stroke="black" stroke-width="8.49557"/>
<path d="M121.72 165.444C124.615 156.089 136.705 153.629 143.026 161.108L146.604 165.339C148.725 167.85 152.54 168.009 154.864 165.685L159.442 161.107C165.37 155.179 175.509 158.167 177.274 166.363C177.54 167.593 178.825 168.311 180.012 167.893L190.334 164.253C196.264 162.163 202.11 164.129 205.625 168.056C209.187 172.036 210.39 178.109 207.036 183.678C201.129 193.488 194.587 200.96 185.901 206.389C177.249 211.797 166.794 214.973 153.385 216.733L153.125 216.767L152.863 216.769C137.082 216.887 124.741 214.765 114.735 209.085C104.655 203.364 97.4807 194.342 91.4199 181.762C88.5078 175.718 90.445 169.666 94.5996 166.115C98.6903 162.618 104.929 161.512 110.602 164.654L116.105 167.702C118.269 168.9 120.988 167.807 121.72 165.444Z" fill="white" stroke="black" stroke-width="8.49557"/>
</svg>
