<svg width="40" height="40" viewBox="0 0 40 40" fill="none" xmlns="http://www.w3.org/2000/svg">
  <!-- Black background -->
  <rect width="40" height="40" rx="8" fill="#0a0a0a"/>
  <!-- Original icon paths -->
  <path d="M7.83984 9.99065L13.4049 3.67963M7.83984 9.99065L20.2753 12.4509M7.83984 9.99065V34.1116L20.2753 38.9251M13.4049 3.67963L26.871 5.33761M13.4049 3.67963V1.48682L26.871 3.09131V5.33761M26.871 5.33761L32.5734 10.4185M26.871 5.33761L25.1849 7.26301M20.2753 12.4509L32.5734 10.4185M20.2753 12.4509V38.9251M20.2753 12.4509L25.1849 7.26301M32.5734 10.4185V35.2882L20.2753 38.9251M32.5734 10.4185L25.1849 7.26301" stroke="white" stroke-width="0.810937"/>
  <path d="M13.8388 27.7067C10.6438 26.6728 11.3414 21.5031 14.4783 18.5161C15.75 19.7172 16.5487 21.6577 16.6185 23.4561C16.6955 25.442 15.8838 27.2546 13.8388 27.7067ZM13.8388 27.7067C16.0819 24.3644 15.9918 23.1114 14.4783 20.1819C12.8527 22.6519 12.0389 25.7537 13.8388 27.7067ZM13.8388 27.7067C13.2015 24.9496 14.6664 24.2028 14.3737 22.4796" stroke="white" stroke-width="0.540625"/>
</svg>
